<?xml version="1.0" encoding="UTF-8"?>
<svg id="Lager_1" data-name="Lager 1" xmlns="http://www.w3.org/2000/svg" viewBox="0 0 294.44 178.8">
  <defs>
    <style>
      .cls-1 {
        fill: #1d1d1b;
        stroke-width: 0px;
      }
    </style>
  </defs>
  <g>
    <path class="cls-1" d="M34.92,123.63V37.87H8.84v85.77h26.08ZM93.4,123.63l12.31-21.73h-18.72c-1.34,0-2.48-.47-3.43-1.42-.95-.95-1.42-2.09-1.42-3.43V16.97h-26.08v81.59c0,7.69,2.23,13.79,6.69,18.31,4.46,4.51,10.64,6.77,18.56,6.77h12.1ZM42.01,37.87v21.23h50.02l12.31-21.23"/>
    <path class="cls-1" d="M20.22,174.15c2.32,0,4.35-.55,6.1-1.67,1.74-1.11,3.12-2.56,4.13-4.35,1.01-1.79,1.51-3.67,1.51-5.64,0-2.17-.47-4.06-1.4-5.68-.93-1.61-2.32-2.88-4.16-3.79-1.84-.91-4.13-1.36-6.85-1.36h-7.57c-2.22,0-3.89-.58-5-1.74-1.11-1.16-1.67-2.47-1.67-3.94s.55-2.86,1.67-4.05c1.11-1.19,2.65-1.78,4.62-1.78h16.96v-4.62H11.05c-2.22,0-4.16.49-5.83,1.48-1.67.98-2.95,2.28-3.86,3.9-.91,1.62-1.36,3.36-1.36,5.22,0,2.07.47,3.89,1.4,5.45.93,1.57,2.3,2.76,4.09,3.6,1.79.83,3.92,1.25,6.4,1.25h8.1c1.46,0,2.67.3,3.63.91.96.61,1.69,1.38,2.2,2.31.5.93.76,1.96.76,3.07s-.29,2.2-.87,3.26c-.58,1.06-1.4,1.92-2.46,2.57-1.06.66-2.37.98-3.94.98H1.14v4.62h19.08ZM65.05,172.45c3-1.79,5.38-4.23,7.12-7.31,1.74-3.08,2.61-6.51,2.61-10.3s-.87-7.28-2.61-10.34c-1.74-3.05-4.11-5.48-7.12-7.27-3-1.79-6.45-2.69-10.34-2.69s-7.34.9-10.37,2.69c-3.03,1.79-5.4,4.23-7.12,7.31-1.72,3.08-2.57,6.51-2.57,10.3s.86,7.22,2.57,10.3c1.72,3.08,4.09,5.52,7.12,7.31,3.03,1.79,6.49,2.69,10.37,2.69s7.33-.9,10.34-2.69h0ZM47.03,168.44c-2.2-1.39-3.91-3.27-5.15-5.64-1.24-2.37-1.86-5.02-1.86-7.95s.62-5.58,1.86-7.95c1.24-2.37,2.95-4.25,5.15-5.64,2.2-1.39,4.76-2.08,7.69-2.08s5.43.69,7.65,2.08c2.22,1.39,3.95,3.27,5.19,5.64,1.24,2.37,1.86,5.02,1.86,7.95s-.62,5.58-1.86,7.95c-1.24,2.37-2.97,4.25-5.19,5.64-2.22,1.39-4.77,2.08-7.65,2.08s-5.49-.69-7.69-2.08h0ZM85,174.15v-55.27h-5.3v55.27h5.3ZM120.07,173.06c2.65-1.39,4.77-3.37,6.36-5.94,1.59-2.57,2.39-5.6,2.39-9.09v-22.49h-5.3v22.26c0,2.68-.58,4.96-1.74,6.85-1.16,1.89-2.69,3.34-4.58,4.35-1.89,1.01-3.93,1.51-6.1,1.51s-4.11-.49-5.98-1.48c-1.87-.98-3.4-2.43-4.58-4.35-1.19-1.92-1.78-4.21-1.78-6.89v-22.26h-5.3v22.49c0,3.48.8,6.51,2.39,9.09,1.59,2.57,3.72,4.56,6.4,5.94,2.67,1.39,5.63,2.08,8.86,2.08s6.32-.69,8.97-2.08h0ZM160.31,174.15v-4.62h-7.42c-2.22,0-3.9-.61-5.04-1.82-1.14-1.21-1.7-2.93-1.7-5.15v-36.72h-5.3v37.33c0,3.38.97,6.06,2.92,8.03,1.94,1.97,4.63,2.95,8.06,2.95h8.48ZM160.46,140.16v-4.62h-26.35v4.62h26.35ZM172.66,174.15v-38.62h-5.3v38.62h5.3ZM209.24,172.45c3-1.79,5.38-4.23,7.12-7.31,1.74-3.08,2.61-6.51,2.61-10.3s-.87-7.28-2.61-10.34c-1.74-3.05-4.11-5.48-7.12-7.27-3-1.79-6.45-2.69-10.34-2.69s-7.34.9-10.37,2.69c-3.03,1.79-5.4,4.23-7.12,7.31-1.72,3.08-2.57,6.51-2.57,10.3s.86,7.22,2.57,10.3c1.72,3.08,4.09,5.52,7.12,7.31,3.03,1.79,6.49,2.69,10.37,2.69s7.33-.9,10.34-2.69h0ZM191.22,168.44c-2.2-1.39-3.91-3.27-5.15-5.64-1.24-2.37-1.86-5.02-1.86-7.95s.62-5.58,1.86-7.95c1.24-2.37,2.95-4.25,5.15-5.64,2.2-1.39,4.76-2.08,7.69-2.08s5.43.69,7.65,2.08c2.22,1.39,3.95,3.27,5.19,5.64,1.24,2.37,1.86,5.02,1.86,7.95s-.62,5.58-1.86,7.95c-1.24,2.37-2.97,4.25-5.19,5.64-2.22,1.39-4.77,2.08-7.65,2.08s-5.49-.69-7.69-2.08h0ZM229.09,174.15v-22.26c0-2.73.58-5.04,1.74-6.93,1.16-1.89,2.67-3.33,4.54-4.32,1.87-.98,3.86-1.48,5.98-1.48s4.2.51,6.1,1.51c1.89,1.01,3.42,2.46,4.58,4.35,1.16,1.89,1.74,4.18,1.74,6.85v22.26h5.3v-22.49c0-3.53-.8-6.57-2.39-9.12-1.59-2.55-3.71-4.52-6.36-5.91-2.65-1.39-5.62-2.08-8.9-2.08s-6.18.69-8.86,2.08c-2.68,1.39-4.81,3.36-6.4,5.91-1.59,2.55-2.39,5.59-2.39,9.12v22.49h5.3ZM282.71,174.15c2.32,0,4.35-.55,6.1-1.67,1.74-1.11,3.12-2.56,4.13-4.35,1.01-1.79,1.51-3.67,1.51-5.64,0-2.17-.47-4.06-1.4-5.68-.93-1.61-2.32-2.88-4.16-3.79-1.84-.91-4.13-1.36-6.85-1.36h-7.57c-2.22,0-3.89-.58-5-1.74-1.11-1.16-1.67-2.47-1.67-3.94s.55-2.86,1.67-4.05c1.11-1.19,2.65-1.78,4.62-1.78h16.96v-4.62h-17.49c-2.22,0-4.16.49-5.83,1.48-1.67.98-2.95,2.28-3.86,3.9-.91,1.62-1.36,3.36-1.36,5.22,0,2.07.47,3.89,1.4,5.45.93,1.57,2.3,2.76,4.09,3.6,1.79.83,3.92,1.25,6.4,1.25h8.1c1.46,0,2.67.3,3.63.91.96.61,1.69,1.38,2.2,2.31.5.93.76,1.96.76,3.07s-.29,2.2-.87,3.26c-.58,1.06-1.4,1.92-2.46,2.57-1.06.66-2.37.98-3.94.98h-18.17v4.62h19.08Z"/>
  </g>
  <g>
    <path class="cls-1" d="M101.42,123.38l11.97-20.79h34.39c1.12,0,2.14-.25,3.04-.76.9-.51,1.63-1.21,2.2-2.11.56-.9.84-1.86.84-2.87,0-1.12-.28-2.14-.84-3.04-.57-.9-1.3-1.61-2.2-2.11-.9-.51-1.92-.76-3.04-.76h-15.21c-5.63,0-10.73-.93-15.29-2.79-4.56-1.86-8.17-4.79-10.82-8.79-2.65-4-3.97-9.21-3.97-15.63,0-4.96,1.21-9.46,3.63-13.52,2.42-4.06,5.75-7.32,9.97-9.8,4.23-2.48,8.87-3.72,13.94-3.72h41.74l-11.94,20.96h-25.75c-1.58,0-2.9.51-3.97,1.52-1.07,1.01-1.61,2.25-1.61,3.72,0,1.58.53,2.9,1.61,3.97,1.07,1.07,2.39,1.61,3.97,1.61h14.87c6.31,0,11.75.93,16.31,2.79,4.56,1.86,8.11,4.82,10.65,8.87,2.54,4.06,3.8,9.29,3.8,15.72,0,5.07-1.27,9.69-3.8,13.86-2.54,4.17-5.92,7.49-10.14,9.97-4.23,2.48-8.99,3.72-14.28,3.72h-50.08Z"/>
    <path class="cls-1" d="M186.18,123.37V0h26.2v123.37h-26.2Z"/>
  </g>
</svg>
